# xmcd
#
# Track frame offsets:
#	150
#	12559
#	24455
#	39932
#	53480
#	72360
#	85510
#	95675
#	108410
#	119167
#	131390
#	144125
#	158359
#	168832
#	181875
#	194487
#	208442
#	220065
#	228832
#	243592
#	251932
#	266520
#	281977
#	290975
#
# Disc length: 4006 seconds
#
# Revision: 0
# Processed by: cddbd v1.4PL0 Copyright (c) Steve Scherf et al.
# Submitted via: EasyCDDAExtractor 4.6.0.1
#
DISCID=620fa418
DTITLE=Varios - Sertanejos and Sertanejas famosas
DYEAR=2000
DGENRE=sertanejo
TTITLE0=Zico and zeca - a enxada e a caneta
TTITLE1=Zico and zeca - dona jandira
TTITLE2=Pedro bento and zé estrada - seresteiro da lua
TTITLE3=Pedro bento and zé estrada - velho sozinho
TTITLE4=Garcia and zé matão - terra roxa
TTITLE5=Garcia and zé matão - nossa senhora de maio
TTITLE6=Sulino and marrueiro - o justiceiro do oeste
TTITLE7=Sulino and marrueiro - tenho fome e tenho sede
TTITLE8=Cascatinha and inhana - onde estás felicidade
TTITLE9=Cascatinha and inhana - meu passado
TTITLE10=Silveira and silveirinha - velho amor
TTITLE11=Silveira and silveirinha - testamento de um pobre velho
TTITLE12=Caçula and marinheiro - adelita
TTITLE13=Caçula and marinheiro - bendita hora
TTITLE14=Canário and passarinho - vem meu amor
TTITLE15=Canário and passarinho - esqueça o coração
TTITLE16=Tibagi and miltinho - o vale do rio vermelho
TTITLE17=Tibagi and miltinho - bis para meu amor 
TTITLE18=Charanga and chará - comparação (sai cachorro)
TTITLE19=Charanga and chará - dona chiquinha
TTITLE20=Belmiro and bueno - brasil gigante
TTITLE21=Belmiro and bueno - feliz semeador
TTITLE22=Leoncio and leonel - tire o olho gordo
TTITLE23=Leoncio and leonel - rosas vermelhas para moça bonita
EXTD=
EXTT0=
EXTT1=
EXTT2=
EXTT3=
EXTT4=
EXTT5=
EXTT6=
EXTT7=
EXTT8=
EXTT9=
EXTT10=
EXTT11=
EXTT12=
EXTT13=
EXTT14=
EXTT15=
EXTT16=
EXTT17=
EXTT18=
EXTT19=
EXTT20=
EXTT21=
EXTT22=
EXTT23=
PLAYORDER=
